<svg width="148" height="41" viewBox="0 0 148 41" fill="none" xmlns="http://www.w3.org/2000/svg">
<g filter="url(#filter0_d_2_2480)">
<path fill-rule="evenodd" clip-rule="evenodd" d="M62.1682 25.3144C60.8589 25.3144 60.2288 23.9884 60.7466 22.7858L66.8367 8.6429C67.287 7.59702 68.3166 6.91943 69.4553 6.91943C70.5918 6.91943 71.6197 7.5944 72.0714 8.63725L78.1491 22.6679C78.678 23.8887 77.817 25.2601 76.4877 25.3144C75.5731 25.2453 74.7751 24.6678 74.4236 23.8206L73.3072 21.1303H65.4934L64.4332 23.7313C64.0332 24.7125 63.2278 25.3144 62.1682 25.3144ZM66.9453 17.6033H71.8554L70.2623 13.3339C69.9646 12.536 68.8361 12.536 68.5384 13.3339L66.9453 17.6033ZM90.261 25.2017C89.0728 25.2017 88.2735 23.9844 88.7458 22.894L94.9206 8.63927C95.3728 7.59519 96.402 6.91943 97.5398 6.91943C98.6776 6.91943 99.7068 7.59519 100.159 8.63927L106.255 22.7114C106.764 23.888 105.899 25.2817 104.62 25.2017C103.69 25.2017 102.851 24.6418 102.495 23.7828L101.394 21.1303H93.5801L92.5152 23.6965C92.1371 24.6078 91.2476 25.2017 90.261 25.2017ZM95.0313 17.6033H99.9413L98.3482 13.3339C98.0505 12.536 96.922 12.536 96.6243 13.3339L95.0313 17.6033ZM113.526 25.2009C111.493 25.2009 109.846 23.5534 109.846 21.5209V10.7283C109.846 8.69593 111.493 7.04834 113.526 7.04834H117.052C122.86 7.04834 126.473 10.9641 126.473 16.1246C126.473 21.2333 122.86 25.2009 117.052 25.2009H113.526ZM113.912 20.677C113.912 21.1851 114.324 21.597 114.832 21.597H117.053C120.38 21.597 122.224 19.3927 122.224 16.1253C122.224 12.9097 120.38 10.6536 117.053 10.6536H114.832C114.324 10.6536 113.912 11.0655 113.912 11.5736V20.677ZM137.215 25.4608C141.202 25.4608 144 23.4381 144 19.8335C144 16.6179 141.888 15.2953 138.139 14.3358C134.945 13.5319 134.153 13.143 134.153 11.9501C134.153 11.0165 135.217 10.244 136.46 10.244C137.702 10.244 139.961 11.0952 140.849 11.4227C141.737 11.7502 142.913 11.8039 143.382 11.0239C143.852 10.244 143.785 9.38561 143.068 8.72706C142.352 8.06852 139.274 6.78955 136.582 6.78955C132.807 6.78955 130.114 8.96786 130.114 12.2613C130.114 15.9177 132.517 16.9291 136.239 17.8626C139.327 18.6406 139.961 19.1593 139.961 20.1706C139.961 21.2857 138.879 22.1236 137.215 22.1236C135.104 22.1236 132.809 20.5468 132.142 20.204C131.475 19.8611 130.379 19.7793 129.739 20.64C129.099 21.5007 129.584 22.5505 130.206 23.1252C130.827 23.6999 133.533 25.4608 137.215 25.4608Z" fill="#343240"/>
<path fill-rule="evenodd" clip-rule="evenodd" d="M83.6683 17.5804C84.7061 17.5804 85.5475 16.7445 85.5475 15.7133C85.5475 14.6821 84.7061 13.8462 83.6683 13.8462C82.6304 13.8462 81.7891 14.6821 81.7891 15.7133C81.7891 16.7445 82.6304 17.5804 83.6683 17.5804Z" fill="#03A9F4"/>
<path fill-rule="evenodd" clip-rule="evenodd" d="M10.4949 28.3525C10.9245 29.1966 11.5816 29.9166 12.4156 30.4628C13.3001 31.0586 14.2604 31.5055 15.246 31.8035C16.2569 32.1014 17.3183 32.2503 18.3797 32.2503C19.7697 32.2503 21.1596 31.9772 22.4232 31.4559C23.4847 31.0338 24.4703 30.438 25.3548 29.6932C26.2393 30.438 27.2249 31.0338 28.2611 31.4559C29.5499 31.9772 30.9399 32.2503 32.3298 32.2503C33.3913 32.2503 34.4274 32.1014 35.4383 31.8035C36.4492 31.5055 37.4095 31.0586 38.294 30.4628C39.128 29.9166 39.7851 29.1966 40.2147 28.3525C40.6696 27.5332 40.9223 26.5898 40.9223 25.6215C40.9223 24.5043 40.619 23.4616 40.0378 22.5678C39.4818 21.6492 38.6478 20.9044 37.6622 20.4078C37.2831 20.2092 36.8283 20.3582 36.6513 20.7306C36.4997 21.0037 36.5503 21.3264 36.7524 21.5499C36.8535 21.674 36.9293 21.823 36.9799 21.9719C37.0557 22.1209 37.081 22.2947 37.081 22.4685C37.081 22.8905 36.9041 23.2629 36.6261 23.536C36.3481 23.8091 35.969 23.9829 35.5394 23.9829C35.3625 23.9829 35.1856 23.9333 35.0087 23.8836C34.857 23.834 34.7054 23.7347 34.5538 23.6105C33.7198 22.9402 32.8353 22.3692 31.875 21.8975C31.319 21.6492 30.763 21.4257 30.207 21.252C30.7377 20.6561 31.1926 19.961 31.4959 19.1913C32.254 19.1417 32.9616 18.8189 33.4924 18.2975C34.0483 17.7265 34.4021 16.9569 34.4021 16.0879C34.4021 15.2438 34.0483 14.4742 33.4924 13.9032C32.9111 13.3321 32.1277 12.9845 31.2432 12.9845L30.6872 10.4274C31.7233 11.1722 32.9869 11.6191 34.3516 11.6191H39.0269C40.5432 11.6191 41.9332 11.0977 42.9946 10.1791C44.056 9.28532 44.8142 8.01914 45.0669 6.57917L45.6229 2.97925C45.6482 2.97925 45.6482 2.95442 45.6482 2.92959V2.90477C45.8756 2.83028 46.1031 2.70615 46.28 2.53236C46.5327 2.25926 46.7096 1.88686 46.7096 1.48962C46.7096 1.11722 46.5579 0.769639 46.3305 0.496541L46.28 0.446887C46.002 0.173789 45.6229 0 45.2185 0H45.1933H43.0452H30.1565H30.1312C29.3983 0 28.7665 0.297925 28.2863 0.769639C28.2105 0.84412 28.1094 0.943428 28.0336 1.04274C27.7556 0.893774 27.4524 0.769639 27.1491 0.67033C26.5678 0.496541 25.9613 0.397233 25.3548 0.397233C24.7483 0.397233 24.1417 0.496541 23.5605 0.67033C23.2572 0.769639 22.954 0.893774 22.676 1.04274C22.6001 0.943428 22.4991 0.84412 22.4232 0.769639C21.9431 0.297925 21.3113 0 20.5784 0H20.5531H7.66443H5.49104C5.08669 0 4.70761 0.173789 4.42962 0.446887C4.414 0.446887 4.40804 0.45637 4.39979 0.469475L4.39979 0.469476C4.3947 0.477575 4.38873 0.487058 4.37908 0.496541C4.15163 0.769639 4 1.11722 4 1.48962C4 1.88686 4.15163 2.25926 4.42962 2.53236C4.60653 2.70615 4.8087 2.83028 5.06142 2.90477V2.92959V2.97925L5.64268 6.57917C5.8954 8.01914 6.62828 9.28532 7.71498 10.1791C8.7764 11.0977 10.1664 11.6191 11.6827 11.6191H16.358C17.7227 11.6191 18.9863 11.1722 20.0224 10.4274L19.4664 12.9845C18.6072 12.9845 17.849 13.3073 17.2678 13.8535L17.2172 13.9032C16.636 14.4742 16.2822 15.2438 16.2822 16.0879C16.2822 16.9569 16.636 17.7265 17.2172 18.2975C17.7479 18.8189 18.4303 19.1417 19.2137 19.1913C19.517 19.961 19.9466 20.6561 20.5026 21.252C19.9466 21.4257 19.3906 21.6492 18.8346 21.8975C17.8743 22.3692 16.9645 22.9402 16.1558 23.6105C16.0042 23.7347 15.8525 23.834 15.7009 23.8836C15.524 23.9333 15.3471 23.9829 15.1702 23.9829C14.7406 23.9829 14.3615 23.8091 14.0835 23.536C13.8055 23.2629 13.6286 22.8905 13.6286 22.4685C13.6286 22.2947 13.6539 22.1209 13.7297 21.9719C13.7802 21.823 13.8561 21.674 13.9571 21.5499C14.1593 21.3264 14.2099 21.0037 14.0582 20.7306C13.8813 20.3582 13.4264 20.2092 13.0474 20.4078C12.0365 20.9044 11.2278 21.6492 10.6718 22.5678C10.0905 23.4616 9.78727 24.5043 9.78727 25.6215C9.78727 26.5898 10.04 27.5332 10.4949 28.3525ZM27.0231 3.37571C27.478 3.74812 27.8065 4.21983 27.9329 4.81568L28.0087 5.16326L28.034 5.18808L28.3878 6.90115V6.92598L29.9041 13.952C29.9799 14.3493 30.3843 14.6224 30.7886 14.5231H30.8644C30.8928 14.5091 30.9212 14.503 30.954 14.4959C30.9797 14.4904 31.0081 14.4843 31.0413 14.4734H31.2435C31.6984 14.4734 32.128 14.6472 32.4313 14.9451C32.7093 15.243 32.9114 15.6403 32.9114 16.0872C32.9114 16.5589 32.7093 16.9561 32.4313 17.254C32.2797 17.403 32.0775 17.5271 31.8753 17.6016C31.9006 17.3782 31.9258 17.1299 31.9258 16.8816C31.9258 16.4844 31.5973 16.1368 31.1677 16.1368C30.7633 16.1368 30.4095 16.4844 30.4095 16.8816C30.4095 17.3533 30.359 17.8002 30.2326 18.2223C30.2326 18.2328 30.2326 18.2389 30.2307 18.2442C30.2281 18.2516 30.2219 18.2576 30.2074 18.2719L30.2074 18.2719C29.9799 19.0912 29.525 19.8112 28.9438 20.4071C28.034 21.3008 26.7704 21.847 25.3804 21.847H25.3551H25.3299C23.9399 21.847 22.6763 21.3008 21.7665 20.4071C21.1853 19.8112 20.7304 19.0912 20.5029 18.2719L20.5029 18.2719C20.4883 18.2576 20.4822 18.2516 20.4796 18.2442C20.4777 18.2389 20.4777 18.2328 20.4777 18.2223C20.3513 17.8002 20.3008 17.3533 20.3008 16.8816C20.3008 16.4844 19.9469 16.1368 19.5426 16.1368C19.113 16.1368 18.7844 16.4844 18.7844 16.8816C18.7844 17.1299 18.8097 17.3782 18.835 17.6016C18.6328 17.5271 18.4306 17.403 18.279 17.254C17.9757 16.9561 17.7988 16.5589 17.7988 16.0872C17.7988 15.6403 17.9757 15.243 18.279 14.9451C18.2916 14.9451 18.2979 14.9389 18.3043 14.9327C18.3106 14.9265 18.3169 14.9203 18.3295 14.9203C18.6075 14.6472 19.0119 14.4734 19.4668 14.4734H19.669C19.6942 14.4858 19.7258 14.492 19.7574 14.4982C19.789 14.5044 19.8206 14.5106 19.8459 14.5231H19.9217C20.326 14.6224 20.7304 14.3493 20.8062 13.952L22.2972 6.92598H22.3225V6.90115L22.6763 5.18808V5.16326L22.7774 4.81568C22.9038 4.21983 23.2323 3.74812 23.6872 3.37571C24.1421 3.02813 24.7233 2.80469 25.3551 2.80469C25.9869 2.80469 26.5682 3.02813 27.0231 3.37571ZM29.8535 6.60412H29.8788C30.1062 7.64686 30.6875 8.5158 31.4709 9.16131C32.2543 9.78198 33.2652 10.1544 34.3519 10.1544H39.0272C40.1645 10.1544 41.2006 9.73233 42.0093 9.062C42.818 8.39167 43.3993 7.42341 43.5762 6.33102L44.1574 2.75593V2.7311V2.65662V2.58214C44.1574 2.28421 44.0311 2.01111 43.8289 1.8125C43.6267 1.61388 43.3487 1.48975 43.0455 1.48975H30.1568C29.8282 1.48975 29.5502 1.61388 29.3481 1.8125C29.1459 2.01111 29.0195 2.28421 29.0195 2.58214C29.0195 2.63179 29.0195 2.68144 29.0448 2.70627V2.78075V2.80558L29.4997 4.86623V4.89105L29.8535 6.60412ZM21.2105 4.89105L20.8314 6.60412C20.6039 7.64686 20.0227 8.5158 19.2392 9.16131C18.4305 9.78198 17.4449 10.1544 16.3582 10.1544H11.6829C10.5457 10.1544 9.48428 9.73233 8.70085 9.062C7.89215 8.39167 7.31089 7.42341 7.13399 6.33102L6.55273 2.75593V2.7311V2.65662V2.58214C6.55273 2.28421 6.67909 2.01111 6.88127 1.8125C7.08345 1.61388 7.36144 1.48975 7.6647 1.48975H20.5534C20.8819 1.48975 21.1599 1.61388 21.3621 1.8125C21.5643 2.01111 21.6906 2.28421 21.6906 2.58214C21.6906 2.61122 21.682 2.64031 21.6748 2.66441C21.6697 2.68144 21.6654 2.69599 21.6654 2.70627V2.78075V2.80558L21.2105 4.86623V4.89105Z" fill="#03A9F4"/>
</g>
<defs>
<filter id="filter0_d_2_2480" x="0" y="0" width="148" height="40.2502" filterUnits="userSpaceOnUse" color-interpolation-filters="sRGB">
<feFlood flood-opacity="0" result="BackgroundImageFix"/>
<feColorMatrix in="SourceAlpha" type="matrix" values="0 0 0 0 0 0 0 0 0 0 0 0 0 0 0 0 0 0 127 0" result="hardAlpha"/>
<feOffset dy="4"/>
<feGaussianBlur stdDeviation="2"/>
<feComposite in2="hardAlpha" operator="out"/>
<feColorMatrix type="matrix" values="0 0 0 0 0 0 0 0 0 0 0 0 0 0 0 0 0 0 0.25 0"/>
<feBlend mode="normal" in2="BackgroundImageFix" result="effect1_dropShadow_2_2480"/>
<feBlend mode="normal" in="SourceGraphic" in2="effect1_dropShadow_2_2480" result="shape"/>
</filter>
</defs>
</svg>
