<svg width="95" height="22" viewBox="0 0 95 22" fill="none" xmlns="http://www.w3.org/2000/svg">
<path fill-rule="evenodd" clip-rule="evenodd" d="M39.4717 17.2088C38.5833 17.2088 38.1557 16.3091 38.5071 15.4931L42.6395 5.89639C42.9451 5.18671 43.6437 4.72693 44.4164 4.72693C45.1875 4.72693 45.885 5.18492 46.1916 5.89255L50.3156 15.413C50.6744 16.2414 50.0902 17.172 49.1882 17.2088C48.5676 17.1619 48.0261 16.7701 47.7876 16.1952L47.0301 14.3697H41.728L41.0086 16.1346C40.7372 16.8004 40.1907 17.2088 39.4717 17.2088ZM42.7149 11.9766H46.0466L45.2427 9.82218C44.945 9.02435 43.8165 9.02435 43.5188 9.82218L42.7149 11.9766ZM58.5355 17.1324C57.7292 17.1324 57.1869 16.3063 57.5074 15.5665L61.6973 5.89392C62.0042 5.18546 62.7025 4.72693 63.4746 4.72693C64.2466 4.72693 64.945 5.18546 65.2518 5.89392L69.3881 15.4426C69.7339 16.241 69.1476 17.1738 68.2785 17.1324C67.6475 17.1324 67.0785 16.7524 66.8366 16.1696L66.0898 14.3697H60.7877L60.0651 16.111C59.8085 16.7293 59.205 17.1324 58.5355 17.1324ZM61.7735 11.9766H65.1052L64.3013 9.82218C64.0036 9.02435 62.8751 9.02435 62.5774 9.82218L61.7735 11.9766ZM75.5043 17.1319C73.4719 17.1319 71.8243 15.4843 71.8243 13.4519V8.49446C71.8243 6.46205 73.4719 4.81445 75.5043 4.81445H76.7144C80.6551 4.81445 83.1064 7.4715 83.1064 10.9732C83.1064 14.4397 80.6551 17.1319 76.7144 17.1319H75.5043ZM74.584 13.7665C74.584 14.2746 74.9959 14.6865 75.504 14.6865H76.7156C78.9726 14.6865 80.2238 13.1908 80.2238 10.9737C80.2238 8.79175 78.9726 7.26086 76.7156 7.26086H75.504C74.9959 7.26086 74.584 7.67276 74.584 8.18086V13.7665ZM90.3969 17.3083C93.1017 17.3083 95.0004 15.9358 95.0004 13.4899C95.0004 11.3079 93.5674 10.4105 91.0238 9.75946C88.8564 9.21397 88.3191 8.95003 88.3191 8.14059C88.3191 7.50712 89.041 6.9829 89.8842 6.9829C90.7273 6.9829 92.2598 7.56048 92.8623 7.78272C93.4649 8.00496 94.2627 8.0414 94.5814 7.51215C94.9001 6.9829 94.8544 6.40047 94.3683 5.95362C93.8823 5.50676 91.7941 4.63892 89.967 4.63892C87.4055 4.63892 85.5785 6.11701 85.5785 8.35175C85.5785 10.8328 87.2085 11.5191 89.7341 12.1526C91.8299 12.6805 92.2598 13.0324 92.2598 13.7186C92.2598 14.4753 91.5254 15.0438 90.3969 15.0438C88.9639 15.0438 87.4071 13.9739 86.9545 13.7413C86.5018 13.5086 85.7584 13.4531 85.3239 14.0372C84.8895 14.6212 85.2189 15.3335 85.6406 15.7235C86.0623 16.1135 87.8983 17.3083 90.3969 17.3083Z" fill="#343240"/>
<path fill-rule="evenodd" clip-rule="evenodd" d="M54.0603 11.9611C54.7645 11.9611 55.3354 11.3939 55.3354 10.6942C55.3354 9.99447 54.7645 9.42725 54.0603 9.42725C53.3561 9.42725 52.7852 9.99447 52.7852 10.6942C52.7852 11.3939 53.3561 11.9611 54.0603 11.9611Z" fill="#03A9F4"/>
<path fill-rule="evenodd" clip-rule="evenodd" d="M4.40711 19.2701C4.69863 19.8429 5.14449 20.3314 5.71038 20.702C6.31057 21.1063 6.9622 21.4096 7.63099 21.6117C8.31692 21.8139 9.03715 21.915 9.75737 21.915C10.7005 21.915 11.6437 21.7297 12.5011 21.3759C13.2213 21.0895 13.8901 20.6852 14.4903 20.1798C15.0905 20.6852 15.7593 21.0895 16.4624 21.3759C17.3369 21.7297 18.2801 21.915 19.2232 21.915C19.9435 21.915 20.6465 21.8139 21.3325 21.6117C22.0184 21.4096 22.67 21.1063 23.2702 20.702C23.8361 20.3314 24.282 19.8429 24.5735 19.2701C24.8822 18.7142 25.0536 18.074 25.0536 17.417C25.0536 16.6589 24.8479 15.9513 24.4535 15.3449C24.0762 14.7216 23.5103 14.2162 22.8415 13.8792C22.5843 13.7445 22.2756 13.8455 22.1556 14.0982C22.0527 14.2836 22.087 14.5026 22.2242 14.6542C22.2928 14.7384 22.3442 14.8395 22.3785 14.9406C22.43 15.0416 22.4471 15.1596 22.4471 15.2775C22.4471 15.5639 22.3271 15.8166 22.1384 16.0019C21.9498 16.1872 21.6926 16.3051 21.4011 16.3051C21.281 16.3051 21.161 16.2714 21.0409 16.2377C20.9381 16.204 20.8352 16.1367 20.7323 16.0524C20.1664 15.5976 19.5662 15.2101 18.9146 14.89C18.5373 14.7216 18.16 14.5699 17.7828 14.452C18.1429 14.0477 18.4516 13.576 18.6573 13.0538C19.1718 13.0201 19.6519 12.8011 20.012 12.4473C20.3893 12.0598 20.6294 11.5376 20.6294 10.948C20.6294 10.3752 20.3893 9.85295 20.012 9.46548C19.6176 9.07801 19.086 8.84216 18.4859 8.84216L18.1086 7.10698C18.8117 7.61238 19.6691 7.91561 20.5951 7.91561H23.7675C24.7964 7.91561 25.7396 7.56184 26.4598 6.93852C27.18 6.33205 27.6945 5.47288 27.866 4.49579L28.2432 2.05306C28.2604 2.05306 28.2604 2.03622 28.2604 2.01937V2.00252C28.4147 1.95198 28.569 1.86775 28.6891 1.74983C28.8606 1.56452 28.9806 1.31182 28.9806 1.04228C28.9806 0.789582 28.8777 0.553733 28.7234 0.368422L28.6891 0.334729C28.5004 0.149419 28.2432 0.0314941 27.9689 0.0314941H27.9517H26.4941H17.7485H17.7313C17.234 0.0314941 16.8053 0.233651 16.4795 0.553733C16.4281 0.604272 16.3595 0.671658 16.308 0.739043C16.1194 0.637965 15.9136 0.553733 15.7078 0.486347C15.3134 0.368422 14.9019 0.301037 14.4903 0.301037C14.0787 0.301037 13.6672 0.368422 13.2728 0.486347C13.067 0.553733 12.8612 0.637965 12.6726 0.739043C12.6211 0.671658 12.5525 0.604272 12.5011 0.553733C12.1753 0.233651 11.7466 0.0314941 11.2493 0.0314941H11.2321H2.4865H1.01175C0.737376 0.0314941 0.480152 0.149419 0.291521 0.334729C0.280923 0.334729 0.276874 0.341164 0.27128 0.350057C0.267823 0.355553 0.263774 0.361988 0.257224 0.368422C0.10289 0.553733 0 0.789582 0 1.04228C0 1.31182 0.10289 1.56452 0.291521 1.74983C0.411559 1.86775 0.548745 1.95198 0.720228 2.00252V2.01937V2.05306L1.11464 4.49579C1.28612 5.47288 1.78342 6.33205 2.5208 6.93852C3.24103 7.56184 4.18418 7.91561 5.21308 7.91561H8.38551C9.31152 7.91561 10.1689 7.61238 10.872 7.10698L10.4948 8.84216C9.91171 8.84216 9.39726 9.06117 9.00285 9.43179L8.96855 9.46548C8.57414 9.85295 8.33407 10.3752 8.33407 10.948C8.33407 11.5376 8.57414 12.0598 8.96855 12.4473C9.32867 12.8011 9.79167 13.0201 10.3233 13.0538C10.529 13.576 10.8206 14.0477 11.1978 14.452C10.8206 14.5699 10.4433 14.7216 10.066 14.89C9.41441 15.2101 8.79707 15.5976 8.24832 16.0524C8.14543 16.1367 8.04255 16.204 7.93966 16.2377C7.81962 16.2714 7.69958 16.3051 7.57954 16.3051C7.28802 16.3051 7.0308 16.1872 6.84217 16.0019C6.65353 15.8166 6.5335 15.5639 6.5335 15.2775C6.5335 15.1596 6.55064 15.0416 6.60209 14.9406C6.63639 14.8395 6.68783 14.7384 6.75642 14.6542C6.89361 14.5026 6.92791 14.2836 6.82502 14.0982C6.70498 13.8455 6.39631 13.7445 6.13909 13.8792C5.45315 14.2162 4.90441 14.7216 4.52715 15.3449C4.13274 15.9513 3.92696 16.6589 3.92696 17.417C3.92696 18.074 4.09844 18.7142 4.40711 19.2701ZM15.6205 2.32222C15.9292 2.57491 16.1521 2.89499 16.2378 3.29931L16.2893 3.53516L16.3064 3.552L16.5465 4.7144V4.73125L17.5754 9.49878C17.6268 9.76832 17.9012 9.95364 18.1756 9.88625H18.227C18.2463 9.87679 18.2656 9.87264 18.2879 9.86784C18.3053 9.86409 18.3245 9.85994 18.3471 9.85256H18.4843C18.7929 9.85256 19.0844 9.97048 19.2902 10.1726C19.4789 10.3748 19.616 10.6443 19.616 10.9476C19.616 11.2677 19.4789 11.5372 19.2902 11.7394C19.1873 11.8404 19.0502 11.9247 18.913 11.9752C18.9301 11.8236 18.9473 11.6551 18.9473 11.4867C18.9473 11.2171 18.7243 10.9813 18.4328 10.9813C18.1584 10.9813 17.9184 11.2171 17.9184 11.4867C17.9184 11.8067 17.8841 12.11 17.7983 12.3964C17.7983 12.4035 17.7983 12.4076 17.797 12.4113C17.7953 12.4162 17.7911 12.4203 17.7812 12.4301C17.6268 12.986 17.3182 13.4745 16.9238 13.8788C16.3064 14.4853 15.449 14.8559 14.5059 14.8559H14.4887H14.4716C13.5284 14.8559 12.671 14.4853 12.0537 13.8788C11.6592 13.4745 11.3506 12.986 11.1962 12.4301L11.1962 12.43C11.1863 12.4203 11.1822 12.4162 11.1804 12.4113C11.1791 12.4076 11.1791 12.4035 11.1791 12.3964C11.0933 12.11 11.0591 11.8067 11.0591 11.4867C11.0591 11.2171 10.819 10.9813 10.5446 10.9813C10.2531 10.9813 10.0302 11.2171 10.0302 11.4867C10.0302 11.6551 10.0473 11.8236 10.0645 11.9752C9.92727 11.9247 9.79008 11.8404 9.68719 11.7394C9.48141 11.5372 9.36137 11.2677 9.36137 10.9476C9.36137 10.6443 9.48141 10.3748 9.68719 10.1726C9.69576 10.1726 9.70005 10.1684 9.70434 10.1642C9.70863 10.16 9.71291 10.1558 9.72149 10.1558C9.91012 9.97048 10.1845 9.85256 10.4932 9.85256H10.6303C10.6475 9.86098 10.6689 9.86519 10.6904 9.8694C10.7118 9.87361 10.7332 9.87783 10.7504 9.88625H10.8018C11.0762 9.95364 11.3506 9.76832 11.402 9.49878L12.4138 4.73125H12.4309V4.7144L12.671 3.552V3.53516L12.7396 3.29931C12.8253 2.89499 13.0483 2.57491 13.3569 2.32222C13.6656 2.08637 14.06 1.93475 14.4887 1.93475C14.9174 1.93475 15.3118 2.08637 15.6205 2.32222ZM17.5425 4.51284H17.5596C17.7139 5.22039 18.1083 5.81001 18.6399 6.24802C19.1715 6.66918 19.8575 6.92188 20.5949 6.92188H23.7673C24.539 6.92188 25.242 6.63549 25.7908 6.18063C26.3395 5.72578 26.7339 5.06877 26.854 4.32753L27.2484 1.90165V1.8848V1.83426V1.78372C27.2484 1.58157 27.1626 1.39625 27.0255 1.26148C26.8883 1.12671 26.6996 1.04248 26.4939 1.04248H17.7482C17.5253 1.04248 17.3367 1.12671 17.1995 1.26148C17.0623 1.39625 16.9766 1.58157 16.9766 1.78372C16.9766 1.81741 16.9766 1.85111 16.9937 1.86795V1.91849V1.93534L17.3024 3.33359V3.35044L17.5425 4.51284ZM11.6784 3.35044L11.4212 4.51284C11.2669 5.22039 10.8725 5.81001 10.3409 6.24802C9.79212 6.66918 9.12333 6.92188 8.38596 6.92188H5.21352C4.44185 6.92188 3.72162 6.63549 3.19003 6.18063C2.64128 5.72578 2.24687 5.06877 2.12683 4.32753L1.73242 1.90165V1.8848V1.83426V1.78372C1.73242 1.58157 1.81816 1.39625 1.95535 1.26148C2.09254 1.12671 2.28117 1.04248 2.48695 1.04248H11.2326C11.4555 1.04248 11.6441 1.12671 11.7813 1.26148C11.9185 1.39625 12.0042 1.58157 12.0042 1.78372C12.0042 1.80346 11.9984 1.8232 11.9935 1.83955C11.99 1.85111 11.9871 1.86098 11.9871 1.86795V1.91849V1.93534L11.6784 3.33359V3.35044Z" fill="#03A9F4"/>
</svg>
